<svg width="104" height="104" viewBox="0 0 104 104" fill="none" xmlns="http://www.w3.org/2000/svg">
<path d="M84.5003 0C95.2698 2.11262e-05 104 8.73078 104 19.5004V40.0859C104 52.5547 103.871 86.7404 103.871 86.7404C102.76 96.4548 94.5122 104 84.5003 104H19.4997C8.73031 104 2.78279e-05 95.2697 0 84.5003V19.4997C0.000169542 8.73029 8.73088 0 19.5004 0H84.5003Z" fill="#FD5B20"/>
<path d="M103.842 17C103.944 17.7952 103.996 18.6055 103.999 19.4277V36.4365H53.2061C53.3462 36.6375 60.3219 44.5185 74.0449 60.0791C75.9111 63.0767 76.8447 66.2196 76.8447 69.5557C76.8447 74.2454 75.3334 78.3549 72.3564 81.8359C69.3351 85.317 65.7362 87.0575 61.5596 87.0576H0.166992C0.0573528 86.2207 2.23993e-06 85.3669 0 84.5V67.5732H56.4492L35.6992 44.0273C33.7886 41.5132 32.8555 38.3215 32.8555 34.502C32.8555 29.7639 34.3219 25.6544 37.2988 22.2217C40.2758 18.7407 43.8747 17.0001 48.0957 17H103.842Z" fill="white"/>
</svg>
