<svg width="380" height="104" viewBox="0 0 380 104" fill="none" xmlns="http://www.w3.org/2000/svg">
<path d="M83.9645 0C94.6658 2.09923e-05 103.341 8.67543 103.341 19.3767V39.8318C91.0238 40.3519 81.1092 50.5813 81.1092 63.0142C81.1094 75.4039 90.9553 85.6052 103.213 86.1904C102.109 95.8432 93.9129 103.341 83.9645 103.341H19.3761C8.67495 103.34 2.76514e-05 94.6657 0 83.9645V19.3761C0.000168467 8.67493 8.67552 0 19.3767 0H83.9645Z" fill="#FD5B20"/>
<path d="M102.718 14.0508C103.195 15.7231 103.452 17.4876 103.459 19.3114V33.3864H52.9298C53.0624 33.5788 60.002 41.4188 73.6605 56.9062C75.5169 59.8882 76.4457 63.0149 76.4457 66.3336C76.4457 70.9991 74.9423 75.088 71.9808 78.551C68.9751 82.0138 65.3947 83.7455 61.2399 83.7456H0V64.3614H56.1561L35.5139 40.9378C33.6132 38.4367 32.6849 35.2625 32.6849 31.4628C32.6849 26.7493 34.1437 22.6612 37.1052 19.2463C40.0667 15.7833 43.6468 14.0508 47.846 14.0508H102.718Z" fill="white"/>
<path d="M81.1093 63.0144C81.1093 50.252 91.5563 39.81 104.325 39.81C117.094 39.81 127.541 50.252 127.541 63.0144C127.541 75.7769 117.094 86.2189 104.325 86.2189C91.5563 86.2189 81.1093 75.7769 81.1093 63.0144ZM93.61 63.0144C93.61 68.9048 98.4318 73.7242 104.325 73.7242C110.218 73.7242 115.04 68.9048 115.04 63.0144C115.04 57.1241 110.218 52.3047 104.325 52.3047C98.4318 52.3047 93.61 57.1241 93.61 63.0144Z" fill="#222222"/>
<path d="M136.431 40.7024V31.8669C136.431 20.8894 141.61 16.6055 153.486 16.6055H159.29V29.1002H153.486C150.093 29.1002 148.932 30.7959 148.932 33.2948V40.7024H156.968V51.4122H148.932V85.3264H136.431V51.4122H129.288V40.7024H136.431Z" fill="#222222"/>
<path d="M168.217 70.065V51.4122H161.074V40.7024H168.217V22.8528H180.718V40.7024H188.754V51.4122H180.718V68.6371C180.718 71.136 181.879 72.8317 185.272 72.8317H191.076V85.3264H185.272C173.396 85.3264 168.217 81.0425 168.217 70.065Z" fill="#222222"/>
<path d="M194.645 85.3264V40.7024H207.146V85.3264H194.645Z" fill="#222222"/>
<path d="M280.34 64.3532V85.3264H267.84V64.3532C267.84 56.8563 264.179 53.1972 256.678 53.1972H251.767V85.3264H239.266V53.1972H223.194V85.3264H210.693V40.7024H256.678C272.572 40.7024 280.34 48.467 280.34 64.3532Z" fill="#222222"/>
<path d="M283.94 85.3264V40.7024H296.441V85.3264H283.94Z" fill="#222222"/>
<path d="M314.721 40.7024H344.187V53.1972H314.721C312.31 53.1972 312.31 56.7671 314.721 56.7671H333.472C353.116 56.7671 353.116 85.3264 333.472 85.3264H304.006V72.8317H333.472C335.883 72.8317 335.883 69.2618 333.472 69.2618H314.721C295.077 69.2618 295.077 40.7024 314.721 40.7024Z" fill="#222222"/>
<path d="M357.141 70.065V51.4122H349.998V40.7024H357.141V22.8528H369.642V40.7024H377.678V51.4122H369.642V68.6371C369.642 71.136 370.803 72.8317 374.196 72.8317H380V85.3264H374.196C362.32 85.3264 357.141 81.0425 357.141 70.065Z" fill="#222222"/>
</svg>
