<svg xmlns="http://www.w3.org/2000/svg" width="1200" height="800" viewBox="0 0 1200 800">
  <defs>
    <linearGradient id="bg" x1="0%" y1="0%" x2="100%" y2="100%">
      <stop offset="0%" style="stop-color:#1a0a2e"/>
      <stop offset="100%" style="stop-color:#16213e"/>
    </linearGradient>
  </defs>
  <rect width="1200" height="800" fill="url(#bg)" rx="16"/>
  <rect x="60" y="60" width="1080" height="680" rx="12" fill="#1e1640" stroke="#2d2057" stroke-width="1"/>
  <!-- Monitor icon -->
  <rect x="545" y="340" width="110" height="75" rx="6" fill="none" stroke="#a855f7" stroke-width="3" opacity="0.8"/>
  <line x1="600" y1="415" x2="600" y2="440" stroke="#a855f7" stroke-width="3" opacity="0.8"/>
  <line x1="575" y1="440" x2="625" y2="440" stroke="#a855f7" stroke-width="3" opacity="0.8"/>
  <!-- Title -->
  <text x="600" y="500" text-anchor="middle" font-family="system-ui, sans-serif" font-size="28" font-weight="600" fill="#94a3b8">PlayMist Aggregator</text>
  <text x="600" y="535" text-anchor="middle" font-family="system-ui, sans-serif" font-size="16" fill="#64748b">Content Aggregation Platform</text>
  <!-- Decorative lines -->
  <rect x="200" y="140" width="300" height="8" rx="4" fill="#2d2057"/>
  <rect x="200" y="168" width="200" height="8" rx="4" fill="#2d2057"/>
  <rect x="200" y="220" width="800" height="1" fill="#2d2057"/>
  <!-- Mock UI elements -->
  <rect x="200" y="250" width="160" height="90" rx="6" fill="#2d2057"/>
  <rect x="380" y="250" width="160" height="90" rx="6" fill="#2d2057"/>
  <rect x="560" y="250" width="160" height="90" rx="6" fill="#2d2057"/>
  <rect x="740" y="250" width="160" height="90" rx="6" fill="#2d2057"/>
</svg>
